<svg viewBox="0 0 240 240" xmlns="http://www.w3.org/2000/svg">
  <circle cx="120" cy="120" r="118" fill="#F5F0FF"/>
  <rect x="74" y="56" width="76" height="140" rx="6" fill="#E9D5FF" stroke="#6D28D9" stroke-width="4"/>
  <rect x="150" y="104" width="46" height="92" rx="6" fill="#DDD0FA" stroke="#6D28D9" stroke-width="4"/>
  <g fill="#6D28D9">
    <rect x="86" y="72" width="14" height="14" rx="2"/>
    <rect x="112" y="72" width="14" height="14" rx="2"/>
    <rect x="86" y="98" width="14" height="14" rx="2"/>
    <rect x="112" y="98" width="14" height="14" rx="2"/>
    <rect x="86" y="124" width="14" height="14" rx="2"/>
    <rect x="112" y="124" width="14" height="14" rx="2"/>
    <rect x="86" y="150" width="14" height="14" rx="2"/>
    <rect x="112" y="150" width="14" height="14" rx="2"/>
  </g>
  <rect x="162" y="118" width="10" height="10" rx="2" fill="#6D28D9" opacity="0.7"/>
  <rect x="180" y="118" width="10" height="10" rx="2" fill="#6D28D9" opacity="0.7"/>
  <rect x="162" y="140" width="10" height="10" rx="2" fill="#6D28D9" opacity="0.7"/>
  <rect x="180" y="140" width="10" height="10" rx="2" fill="#6D28D9" opacity="0.7"/>
  <rect x="103" y="174" width="18" height="22" fill="#4C1D95"/>
  <g transform="translate(150,44)">
    <circle cx="14" cy="14" r="14" fill="#6D28D9"/>
    <path d="M14 7 V21 M7 14 H21" stroke="white" stroke-width="3" stroke-linecap="round"/>
  </g>
  <circle cx="62" cy="70" r="5" fill="#6D28D9" opacity="0.4"/>
  <circle cx="198" cy="176" r="5" fill="#6D28D9" opacity="0.3"/>
</svg>
