<svg width="155" height="40" viewBox="0 0 155 40" fill="none" xmlns="http://www.w3.org/2000/svg">
<path d="M19.1606 1.81958e-05H31.9345L50.4566 39.8649H37.044L19.1606 1.81958e-05Z" fill="#12181F"/>
<path d="M25.6495 14.4192L19.1606 1.81958e-05L0 39.8648H14.6899L25.6495 14.4192Z" fill="#1269E6"/>
<path d="M35.7134 30.1155C35.7134 33.3242 33.1021 35.9254 29.8808 35.9254C26.6596 35.9254 24.0482 33.3242 24.0482 30.1155C24.0482 26.9067 26.6596 24.3055 29.8808 24.3055C33.1021 24.3055 35.7134 26.9067 35.7134 30.1155Z" fill="#12181F"/>
<path d="M29.9706 24.3055H40.2V35.9254H29.9706V24.3055Z" fill="#12181F"/>
<path d="M65.9656 19.639H62.3296L68.9498 0.264732H73.1551L79.7844 19.639H76.1484L71.1259 4.23803H70.979L65.9656 19.639ZM66.085 12.0428H76.0015V14.8616H66.085V12.0428ZM95.1492 0.264732H98.5557V12.9225C98.5557 14.3098 98.2374 15.5302 97.601 16.5835C96.9704 17.6367 96.0829 18.4596 94.9381 19.0526C93.7934 19.639 92.456 19.9324 90.9256 19.9324C89.3892 19.9324 88.0486 19.639 86.9039 19.0526C85.7593 18.4596 84.8717 17.6367 84.2412 16.5835C83.6107 15.5302 83.2955 14.3098 83.2955 12.9225V0.264732H86.7019V12.6292C86.7019 13.4363 86.8733 14.1553 87.2161 14.786C87.5651 15.4167 88.0547 15.9118 88.6852 16.2711C89.3158 16.6244 90.0626 16.8009 90.9256 16.8009C91.7887 16.8009 92.5355 16.6244 93.166 16.2711C93.8026 15.9118 94.2924 15.4167 94.635 14.786C94.9779 14.1553 95.1492 13.4363 95.1492 12.6292V0.264732ZM103.293 19.639V0.264732H110.344C111.789 0.264732 113.001 0.523468 113.98 1.04061C114.966 1.55775 115.71 2.28301 116.212 3.21639C116.72 4.14345 116.974 5.22503 116.974 6.4611C116.974 7.70351 116.717 8.78208 116.202 9.69648C115.694 10.6046 114.944 11.3078 113.953 11.806C112.961 12.2982 111.743 12.5439 110.298 12.5439H105.276V9.63022H109.839C110.684 9.63022 111.376 9.51034 111.914 9.27091C112.453 9.02483 112.851 8.66852 113.108 8.20167C113.371 7.72881 113.503 7.14874 113.503 6.4611C113.503 5.7738 113.371 5.18706 113.108 4.70156C112.845 4.20972 112.444 3.83744 111.905 3.58536C111.367 3.32662 110.672 3.19742 109.821 3.19742H106.699V19.639H103.293ZM113.007 10.86L117.662 19.639H113.861L109.288 10.86H113.007ZM123.558 19.639H119.922L126.543 0.264732H130.748L137.377 19.639H133.741L128.719 4.23803H128.572L123.558 19.639ZM123.678 12.0428H133.594V14.8616H123.678V12.0428ZM150.805 5.59065C150.719 4.76449 150.358 4.12148 149.721 3.66095C149.091 3.20041 148.271 2.97032 147.261 2.97032C146.55 2.97032 145.941 3.08087 145.433 3.30164C144.925 3.52208 144.537 3.82178 144.267 4.20006C143.998 4.57868 143.86 5.01057 143.854 5.49608C143.854 5.9 143.943 6.24998 144.12 6.54634C144.304 6.84271 144.552 7.09512 144.864 7.30324C145.176 7.50504 145.522 7.6752 145.901 7.81406C146.281 7.95259 146.664 8.06947 147.049 8.16404L148.812 8.61791C149.522 8.7884 150.205 9.0185 150.86 9.30854C151.521 9.59858 152.111 9.96454 152.632 10.4061C153.158 10.8473 153.575 11.3804 153.881 12.0048C154.187 12.6292 154.34 13.3608 154.34 14.1996C154.34 15.3348 154.058 16.3344 153.495 17.1982C152.932 18.056 152.118 18.7276 151.053 19.2135C149.994 19.6927 148.711 19.9324 147.205 19.9324C145.742 19.9324 144.472 19.699 143.395 19.2321C142.324 18.7656 141.485 18.0843 140.879 17.1889C140.279 16.2934 139.955 15.2022 139.906 13.9155H143.257C143.306 14.5905 143.508 15.1519 143.863 15.5995C144.218 16.0474 144.68 16.3817 145.25 16.6025C145.825 16.8232 146.468 16.9335 147.178 16.9335C147.919 16.9335 148.567 16.8199 149.124 16.5928C149.687 16.3597 150.128 16.038 150.447 15.6281C150.765 15.2119 150.927 14.726 150.933 14.1713C150.927 13.6664 150.783 13.2502 150.502 12.9225C150.22 12.5882 149.825 12.3105 149.317 12.09C148.815 11.8629 148.228 11.6611 147.554 11.4843L145.415 10.9169C143.866 10.507 142.642 9.88562 141.742 9.05313C140.848 8.21432 140.401 7.10111 140.401 5.71386C140.401 4.57235 140.701 3.5727 141.301 2.71491C141.907 1.85711 142.731 1.19178 143.771 0.718931C144.812 0.239419 145.99 0 147.306 0C148.641 0 149.81 0.239419 150.814 0.718931C151.824 1.19178 152.617 1.85078 153.192 2.69592C153.768 3.53474 154.064 4.49976 154.083 5.59065H150.805Z" fill="#12181F"/>
<path d="M63.6956 31.7975V39.8583H62.7157V31.7975H63.6956Z" fill="#12181F"/>
<path d="M75.6666 31.7975V39.8583H74.7183L70.3086 33.5293H70.2296V39.8583H69.2497V31.7975H70.198L74.6234 38.1422H74.7024V31.7975H75.6666Z" fill="#12181F"/>
<path d="M85.6421 33.8127C85.5947 33.4139 85.4024 33.1042 85.0652 32.8838C84.7281 32.6634 84.3145 32.5532 83.8245 32.5532C83.4663 32.5532 83.1528 32.6109 82.8841 32.7264C82.6181 32.8418 82.41 33.0006 82.2598 33.2026C82.1123 33.4047 82.0385 33.6343 82.0385 33.8914C82.0385 34.1066 82.0899 34.2916 82.1926 34.4464C82.298 34.5986 82.4324 34.7258 82.5957 34.8282C82.759 34.9279 82.9302 35.0105 83.1093 35.0761C83.2885 35.1391 83.4531 35.1903 83.6032 35.2296L84.4251 35.4501C84.6358 35.5052 84.8703 35.5813 85.1284 35.6783C85.3892 35.7754 85.6382 35.9079 85.8752 36.0759C86.1149 36.2412 86.3125 36.4537 86.4679 36.7135C86.6233 36.9733 86.701 37.2921 86.701 37.6699C86.701 38.1055 86.5865 38.4991 86.3573 38.8507C86.1308 39.2023 85.7988 39.4818 85.3616 39.6891C84.9269 39.8964 84.3988 40 83.7771 40C83.1976 40 82.6958 39.9068 82.2717 39.7205C81.8502 39.5342 81.5183 39.2745 81.2759 38.9412C81.0362 38.608 80.9006 38.221 80.869 37.7801H81.8805C81.9068 38.0845 82.0096 38.3364 82.1887 38.5358C82.3705 38.7326 82.5996 38.8796 82.8762 38.9767C83.1554 39.0711 83.4557 39.1184 83.7771 39.1184C84.1512 39.1184 84.487 39.058 84.7847 38.9373C85.0824 38.814 85.3181 38.6434 85.492 38.4256C85.6658 38.2052 85.7527 37.9481 85.7527 37.6542C85.7527 37.3865 85.6777 37.1688 85.5275 37.0008C85.3774 36.8329 85.1798 36.6964 84.9348 36.5915C84.6898 36.4865 84.4251 36.3947 84.1406 36.316L83.1449 36.0326C82.5127 35.8515 82.0122 35.5931 81.6434 35.2572C81.2746 34.9213 81.0902 34.4818 81.0902 33.9387C81.0902 33.4873 81.2127 33.0937 81.4577 32.7579C81.7053 32.4194 82.0372 32.157 82.4534 31.9707C82.8723 31.7818 83.3398 31.6873 83.8561 31.6873C84.3777 31.6873 84.8413 31.7805 85.247 31.9668C85.6526 32.1504 85.974 32.4023 86.2111 32.7225C86.4508 33.0426 86.5772 33.406 86.5904 33.8127H85.6421Z" fill="#12181F"/>
<path d="M97.212 31.7975H98.1919V37.1346C98.1919 37.6857 98.0615 38.1777 97.8007 38.6106C97.5426 39.0409 97.1778 39.3807 96.7062 39.63C96.2347 39.8767 95.6815 40 95.0467 40C94.4119 40 93.8587 39.8767 93.3872 39.63C92.9156 39.3807 92.5495 39.0409 92.2887 38.6106C92.0306 38.1777 91.9015 37.6857 91.9015 37.1346V31.7975H92.8814V37.0559C92.8814 37.4495 92.9683 37.7998 93.1422 38.1068C93.316 38.4112 93.5637 38.6513 93.885 38.8271C94.209 39.0003 94.5962 39.0869 95.0467 39.0869C95.4971 39.0869 95.8844 39.0003 96.2084 38.8271C96.5324 38.6513 96.78 38.4112 96.9512 38.1068C97.1251 37.7998 97.212 37.4495 97.212 37.0559V31.7975Z" fill="#12181F"/>
<path d="M103.738 39.8583V31.7975H106.472C107.105 31.7975 107.623 31.9051 108.029 32.1203C108.435 32.3328 108.735 32.6254 108.93 32.998C109.125 33.3706 109.222 33.7943 109.222 34.2693C109.222 34.7442 109.125 35.1654 108.93 35.5327C108.735 35.9001 108.436 36.1887 108.033 36.3986C107.63 36.6059 107.115 36.7096 106.488 36.7096H104.275V35.8279H106.457C106.889 35.8279 107.236 35.7649 107.5 35.639C107.766 35.513 107.958 35.3346 108.077 35.1037C108.198 34.8702 108.258 34.592 108.258 34.2693C108.258 33.9465 108.198 33.6645 108.077 33.423C107.955 33.1816 107.762 32.9953 107.496 32.8641C107.23 32.7303 106.878 32.6634 106.441 32.6634H104.718V39.8583H103.738ZM107.547 36.2372L109.539 39.8583H108.401L106.441 36.2372H107.547Z" fill="#12181F"/>
<path d="M114.777 39.8583H113.749L116.721 31.7975H117.732L120.703 39.8583H119.676L117.258 33.0728H117.195L114.777 39.8583ZM115.156 36.7096H119.297V37.5755H115.156V36.7096Z" fill="#12181F"/>
<path d="M131.97 31.7975V39.8583H131.022L126.612 33.5293H126.533V39.8583H125.553V31.7975H126.501L130.927 38.1422H131.006V31.7975H131.97Z" fill="#12181F"/>
<path d="M144.032 34.3165H143.052C142.994 34.0357 142.893 33.7891 142.748 33.5765C142.605 33.364 142.432 33.1856 142.226 33.0413C142.023 32.8943 141.798 32.7841 141.55 32.7106C141.303 32.6372 141.045 32.6004 140.776 32.6004C140.286 32.6004 139.842 32.7238 139.444 32.9704C139.049 33.2171 138.735 33.5805 138.5 34.0607C138.268 34.5409 138.152 35.1299 138.152 35.8279C138.152 36.5259 138.268 37.115 138.5 37.5951C138.735 38.0753 139.049 38.4387 139.444 38.6854C139.842 38.932 140.286 39.0554 140.776 39.0554C141.045 39.0554 141.303 39.0186 141.55 38.9452C141.798 38.8717 142.023 38.7628 142.226 38.6185C142.432 38.4715 142.605 38.2918 142.748 38.0793C142.893 37.8641 142.994 37.6174 143.052 37.3393H144.032C143.958 37.7513 143.824 38.1199 143.629 38.4453C143.434 38.7707 143.192 39.0475 142.902 39.2758C142.612 39.5014 142.287 39.6733 141.926 39.7914C141.568 39.9095 141.184 39.9685 140.776 39.9685C140.086 39.9685 139.472 39.8006 138.935 39.4647C138.397 39.1288 137.975 38.6513 137.666 38.032C137.358 37.4128 137.204 36.6781 137.204 35.8279C137.204 34.9777 137.358 34.243 137.666 33.6238C137.975 33.0045 138.397 32.527 138.935 32.1911C139.472 31.8552 140.086 31.6873 140.776 31.6873C141.184 31.6873 141.568 31.7463 141.926 31.8644C142.287 31.9825 142.612 32.1557 142.902 32.384C143.192 32.6096 143.434 32.8851 143.629 33.2105C143.824 33.5333 143.958 33.9019 144.032 34.3165Z" fill="#12181F"/>
<path d="M149.205 39.8583V31.7975H154.088V32.6634H150.185V35.3871H153.836V36.253H150.185V38.9924H154.152V39.8583H149.205Z" fill="#12181F"/>
</svg>
