<svg width="107" height="64" viewBox="0 0 107 64" fill="none" xmlns="http://www.w3.org/2000/svg">
<path d="M0 8.46953C0 7.55982 0.55814 7 1.53489 7H16.5349C17.5116 7 18 7.41986 18 8.32957V9.51919C18 10.4289 17.5116 10.8487 16.5349 10.8487H4.32559V20.3658H13.8837C14.8605 20.3658 15.3488 20.7855 15.3488 21.6952V22.8149C15.3488 23.7246 14.8605 24.1445 13.8837 24.1445H4.32559V34.2213H16.4651C17.4419 34.2213 18 34.6411 18 35.5509V36.6704C18 37.5801 17.4419 38 16.4651 38H1.46512C0.55814 38 0 37.5801 0 36.6704V8.46953Z" fill="#221B37"/>
<path d="M27.3817 7H28.9015C29.8687 7 30.2832 7.48763 30.2832 8.39325V22.0473L41.0607 7.97528C41.5442 7.3483 41.9588 7 42.8569 7H44.8603C45.7584 7 46.0348 8.04493 45.5513 8.6719L36.4319 20.3057L45.8275 36.3282C46.242 37.0247 45.8967 38 44.9294 38H43.1331C42.1659 38 41.6824 37.5124 41.3369 36.8158L33.8067 24.1371L30.3523 29.0136V36.4675C30.3523 37.3731 29.8687 38 28.9015 38H27.4508C26.5526 38 26 37.3731 26 36.4675V8.32358C26.0691 7.41798 26.5526 7 27.3817 7Z" fill="#221B37"/>
<path d="M57.3812 10.7703H51.4352C50.4784 10.7703 50 10.3514 50 9.44371V8.32658C50 7.41894 50.4784 7 51.4352 7H67.5648C68.5216 7 69 7.41894 69 8.32658V9.37388C69 10.2815 68.5216 10.7005 67.5648 10.7005H61.5504V36.5338C61.5504 37.4415 61.0719 38 60.1834 38H58.7481C57.7913 38 57.3129 37.4415 57.3129 36.5338L57.3812 10.7703Z" fill="#221B37"/>
<path d="M74 15.9663C74 9.64123 78.5296 7 84.1045 7C89.6793 7 94 9.71075 94 16.0359V36.5402C94 37.4438 93.4424 38 92.4668 38H91.0034C90.0278 38 89.6097 37.4438 89.6097 36.5402V27.9216H78.3903V36.5402C78.3903 37.4438 77.9025 38 76.9267 38H75.4634C74.4878 38 74 37.4438 74 36.5402V15.9663ZM78.46 24.0986H89.6793V16.3834C89.6793 11.8654 86.9616 10.8228 83.9652 10.8228C80.8293 10.8228 78.46 11.796 78.46 16.3834V24.0986Z" fill="#221B37"/>
<path d="M101.5 0C98.4366 0 96 2.4367 96 5.49999C96 8.56328 98.4366 11 101.5 11C104.563 11 107 8.56328 107 5.49999C107 2.4367 104.563 0 101.5 0ZM101.5 8.07595C100.038 8.07595 98.924 6.8924 98.924 5.49999C98.924 4.10759 100.108 2.92405 101.5 2.92405C102.892 2.92405 104.076 4.10759 104.076 5.49999C104.076 6.8924 102.962 8.07595 101.5 8.07595Z" fill="#221B37"/>
<path d="M1 47.0608V46.1199H7.20571V47.0608H4.60384V54.8801H3.60187V47.0608H1ZM12.7341 54.8801V46.1199H15.5299C16.1763 46.1199 16.7069 46.2367 17.1217 46.4706C17.5365 46.7015 17.8436 47.0195 18.0429 47.4244C18.2422 47.8293 18.3418 48.2899 18.3418 48.806C18.3418 49.3222 18.2422 49.7799 18.0429 50.1792C17.8436 50.5783 17.5379 50.8921 17.1258 51.1201C16.7137 51.3454 16.1871 51.4582 15.546 51.4582H13.2835V50.5H15.5137C15.9555 50.5 16.311 50.4315 16.5803 50.2946C16.8524 50.1577 17.049 49.9638 17.1702 49.7128C17.2941 49.4591 17.3561 49.1567 17.3561 48.806C17.3561 48.4553 17.2941 48.1487 17.1702 47.8863C17.0463 47.6241 16.8483 47.4216 16.5763 47.279C16.3043 47.1335 15.9447 47.0608 15.4976 47.0608H13.7361V54.8801H12.7341ZM16.6288 50.9449L18.6651 54.8801H17.5015L15.4976 50.9449H16.6288ZM24.3329 54.8801H23.2824L26.3206 46.1199H27.3548L30.3931 54.8801H29.3426L26.8701 47.5057H26.8055L24.3329 54.8801ZM24.7206 51.4582H28.9548V52.3992H24.7206V51.4582ZM35.2255 46.1199L37.682 53.4943H37.7789L40.2354 46.1199H41.2857L38.2477 54.8801H37.2133L34.175 46.1199H35.2255ZM46.5566 54.8801V46.1199H51.5504V47.0608H47.5585V50.0208H51.2917V50.9619H47.5585V53.939H51.6148V54.8801H46.5566ZM57.3383 54.8801V46.1199H58.3403V53.939H62.1865V54.8801H57.3383ZM68.7219 46.1199V54.8801H67.7199V46.1199H68.7219ZM81.2741 46.1199V54.8801H80.3044L75.7956 48.002H75.7149V54.8801H74.7129V46.1199H75.6824L80.2075 53.0151H80.2883V46.1199H81.2741ZM92.9173 48.8574C92.8283 48.5693 92.7112 48.3113 92.5657 48.0831C92.4229 47.8522 92.2519 47.6555 92.0526 47.4928C91.856 47.3302 91.6324 47.2064 91.3819 47.1206C91.1314 47.0351 90.8567 46.9924 90.5578 46.9924C90.0675 46.9924 89.6219 47.1265 89.2205 47.3945C88.8192 47.6625 88.4999 48.0576 88.2629 48.5793C88.0259 49.1011 87.9073 49.7413 87.9073 50.5C87.9073 51.2585 88.0274 51.8987 88.2671 52.4207C88.5067 52.9424 88.8314 53.3373 89.2408 53.6055C89.6501 53.8735 90.1107 54.0075 90.6225 54.0075C91.0965 54.0075 91.5139 53.9006 91.8749 53.6866C92.2384 53.47 92.5213 53.1649 92.7233 52.7714C92.9281 52.3749 93.0303 51.9087 93.0303 51.3725L93.3375 51.441H90.8487V50.5H94V51.441C94 52.1625 93.8546 52.7899 93.5637 53.3231C93.2755 53.8565 92.8769 54.2698 92.3678 54.5635C91.8615 54.8544 91.2797 55 90.6225 55C89.8898 55 89.2461 54.8173 88.6912 54.4523C88.1391 54.0874 87.7081 53.5684 87.3984 52.8954C87.0912 52.2223 86.9378 51.4239 86.9378 50.5C86.9378 49.807 87.0252 49.1838 87.2004 48.6307C87.3781 48.0746 87.6286 47.6012 87.9519 47.2106C88.275 46.8199 88.6575 46.5204 89.0993 46.3122C89.5409 46.1042 90.0271 46 90.5578 46C90.9942 46 91.4009 46.0699 91.7778 46.2096C92.1577 46.3465 92.4958 46.5418 92.7919 46.7956C93.091 47.0466 93.3401 47.3475 93.5394 47.6982C93.7387 48.0461 93.8762 48.4326 93.9515 48.8574H92.9173Z" fill="#221B37"/>
</svg>
