<svg width="288" height="41" viewBox="0 0 288 41" fill="none" xmlns="http://www.w3.org/2000/svg">
<path d="M29.1774 12.1792V1.32205H11.4632V12.1792H0.320312V29.6791H11.4632V40.5362H29.1774V29.6791H40.3202V12.1792H29.1774Z" fill="#0085CA"/>
<path d="M76.0363 1.32205C71.7506 3.4649 67.4649 4.60776 62.3935 4.60776C57.3935 4.60776 53.1078 3.39348 48.7506 1.32205C45.8935 6.75061 45.465 15.6077 47.8935 23.0363C50.2507 30.1791 54.8221 36.6791 62.322 40.7505C69.822 36.6791 74.3934 30.1791 76.7506 23.0363C79.1791 15.6077 78.7506 6.82204 75.8934 1.32205" fill="#0085CA"/>
<path d="M94.036 12.4669C95.3217 12.4669 96.1074 11.8241 96.1074 10.7526C96.1074 9.68121 95.3931 8.96692 94.036 8.96692H91.8217V12.4669H93.9646H94.036ZM93.7503 6.8955C94.9646 6.8955 95.6788 6.25263 95.6788 5.25264C95.6788 4.25264 94.9646 3.60979 93.6789 3.60979H91.8217V6.8955H93.7503ZM94.1074 1.39551C96.8217 1.39551 98.3217 2.8955 98.3217 4.96693C98.3217 7.03835 97.4646 7.46692 96.3217 7.82406C97.6789 8.10978 98.7503 9.32406 98.7503 10.9669C98.7503 12.6098 97.1074 14.6812 94.4646 14.6812H89.1074V1.46694H94.036L94.1074 1.39551Z" fill="black"/>
<path d="M103.532 1.10986H100.961V14.6098H103.532V1.10986Z" fill="black"/>
<path d="M112.319 13.6804C111.819 14.5376 110.676 14.8947 109.676 14.8947C107.39 14.8947 106.033 13.2519 106.033 11.2519V5.46617H108.605V10.7519C108.605 11.7519 109.176 12.609 110.319 12.609C111.462 12.609 112.105 11.8947 112.105 10.8233V5.46617H114.676V12.9662C114.676 13.6804 114.676 14.3233 114.748 14.609H112.248C112.248 14.3947 112.176 13.9661 112.176 13.609" fill="black"/>
<path d="M123.748 8.96589C123.748 8.03732 123.105 7.18018 121.605 7.18018C120.105 7.18018 119.533 8.18018 119.462 8.96589H123.748ZM126.176 12.0373C125.676 13.6087 124.176 14.9659 121.819 14.9659C119.462 14.9659 116.891 13.1802 116.891 10.0373C116.891 6.89447 119.176 5.18018 121.605 5.18018C124.033 5.18018 126.319 6.96589 126.319 9.96589C126.319 12.9659 126.319 10.6802 126.319 10.7516H119.462C119.462 11.9659 120.605 12.823 121.891 12.823C123.176 12.823 123.748 12.2516 124.033 11.3945L126.176 12.0373Z" fill="black"/>
<path d="M127.891 8.03841C127.891 3.82413 131.248 1.10986 134.891 1.10986C138.533 1.10986 140.676 3.32415 141.176 5.467L138.676 6.2527C138.319 4.96698 137.248 3.60986 134.891 3.60986C132.533 3.60986 130.676 5.03841 130.676 8.03841C130.676 11.0384 132.748 12.3955 134.962 12.3955C137.176 12.3955 138.462 10.8956 138.819 9.68127L141.319 10.3956C140.819 12.3956 138.819 14.8955 134.962 14.8955C131.105 14.8955 127.891 12.2527 127.891 8.03841Z" fill="black"/>
<path d="M148.89 7.896C148.605 7.896 148.319 7.82456 148.105 7.82456C146.748 7.82456 145.605 8.46742 145.605 10.396V14.6103H143.033V5.396H145.533V6.75314C146.105 5.53885 147.462 5.32457 148.248 5.32457C149.033 5.32457 148.676 5.32457 148.819 5.32457V7.82456L148.89 7.896Z" fill="black"/>
<path d="M157.391 10.0373C157.391 8.32304 156.249 7.39446 154.963 7.39446C153.677 7.39446 152.534 8.25161 152.534 10.0373C152.534 11.823 153.677 12.6802 154.963 12.6802C156.249 12.6802 157.391 11.823 157.391 10.0373ZM159.963 10.0373C159.963 12.823 157.82 14.8944 154.963 14.8944C152.106 14.8944 149.963 12.823 149.963 10.0373C149.963 7.25161 152.106 5.18018 154.963 5.18018C157.82 5.18018 159.963 7.18018 159.963 10.0373Z" fill="black"/>
<path d="M163.607 11.6087C163.607 12.323 164.25 13.0373 165.321 13.0373C166.393 13.0373 166.607 12.6087 166.607 12.1087C166.607 11.6087 166.321 11.3945 165.607 11.1802L164.321 10.8944C162.464 10.5373 161.607 9.46589 161.607 8.18018C161.607 6.89447 163.107 5.18018 165.178 5.18018C167.25 5.18018 168.821 6.82304 168.964 7.82304L166.821 8.32304C166.75 7.75162 166.321 7.10875 165.25 7.10875C164.178 7.10875 164.035 7.46588 164.035 8.03731C164.035 8.60874 164.393 8.7516 164.893 8.82303L166.25 9.10874C168.107 9.46588 169.107 10.6088 169.107 11.8945C169.107 13.1802 167.893 14.8944 165.393 14.8944C162.893 14.8944 161.535 13.1087 161.393 12.0373L163.607 11.5373V11.6087Z" fill="black"/>
<path d="M172.75 11.6087C172.75 12.323 173.393 13.0373 174.464 13.0373C175.535 13.0373 175.75 12.6087 175.75 12.1087C175.75 11.6087 175.464 11.3945 174.75 11.1802L173.464 10.8944C171.607 10.5373 170.75 9.46588 170.75 8.18017C170.75 6.89446 172.25 5.18017 174.321 5.18017C176.393 5.18017 177.964 6.82303 178.107 7.82303L175.964 8.32304C175.893 7.75161 175.464 7.10874 174.393 7.10874C173.321 7.10874 173.178 7.46588 173.178 8.0373C173.178 8.60873 173.535 8.75159 174.035 8.82302L175.393 9.10873C177.25 9.46587 178.25 10.6087 178.25 11.8945C178.25 13.1802 177.035 14.8944 174.535 14.8944C172.035 14.8944 170.678 13.1087 170.535 12.0373L172.75 11.5373V11.6087Z" fill="black"/>
<path d="M190.031 12.4672C191.317 12.4672 192.102 11.8244 192.102 10.7529C192.102 9.6815 191.388 8.96722 190.031 8.96722H187.817V12.4672H189.96H190.031ZM189.745 6.8958C190.96 6.8958 191.674 6.25293 191.674 5.25293C191.674 4.25294 190.96 3.61009 189.674 3.61009H187.817V6.8958H189.745ZM190.174 1.39581C192.888 1.39581 194.388 2.8958 194.388 4.96723C194.388 7.03865 193.531 7.46722 192.388 7.82436C193.745 8.11007 194.817 9.32435 194.817 10.9672C194.817 12.6101 193.174 14.6815 190.531 14.6815H185.174V1.46724H190.102L190.174 1.39581Z" fill="black"/>
<path d="M199.536 1.10986H196.965V14.6098H199.536V1.10986Z" fill="black"/>
<path d="M208.391 13.6801C207.891 14.5372 206.748 14.8943 205.748 14.8943C203.463 14.8943 202.106 13.2515 202.106 11.2515V5.46581H204.677V10.7515C204.677 11.7515 205.248 12.6087 206.391 12.6087C207.534 12.6087 208.177 11.8944 208.177 10.8229V5.46581H210.748V12.9658C210.748 13.6801 210.748 14.3229 210.82 14.6086H208.32C208.32 14.3944 208.248 13.9658 208.248 13.6086" fill="black"/>
<path d="M219.82 8.96589C219.82 8.03732 219.177 7.18018 217.677 7.18018C216.177 7.18018 215.606 8.18017 215.534 8.96589H219.82ZM222.249 12.0373C221.749 13.6087 220.249 14.9659 217.892 14.9659C215.534 14.9659 212.963 13.1802 212.963 10.0373C212.963 6.89446 215.249 5.18017 217.677 5.18017C220.106 5.18017 222.392 6.96589 222.392 9.96588C222.392 12.9659 222.392 10.6802 222.392 10.7516H215.534C215.534 11.9659 216.677 12.823 217.963 12.823C219.249 12.823 219.82 12.2516 220.106 11.3944L222.249 12.0373Z" fill="black"/>
<path d="M231.605 5.25207C231.462 4.53779 230.82 3.39493 229.105 3.39493C227.391 3.39493 226.962 4.18066 226.962 5.10923C226.962 6.0378 227.462 6.39492 228.462 6.60921L230.391 6.96635C232.891 7.46635 234.248 8.96634 234.248 10.8949C234.248 12.8235 232.462 14.9663 229.248 14.9663C226.034 14.9663 223.962 12.6806 223.748 10.8235L226.248 10.1806C226.391 11.4663 227.32 12.6806 229.248 12.6806C231.177 12.6806 231.462 11.9663 231.462 11.0378C231.462 10.1092 230.891 9.68063 229.82 9.46634L227.891 9.1092C225.677 8.68063 224.248 7.3235 224.248 5.3235C224.248 3.32351 226.462 1.18066 229.034 1.18066C231.605 1.18066 233.677 3.10922 233.962 4.60922L231.534 5.3235L231.605 5.25207Z" fill="black"/>
<path d="M238.892 14.6098H236.321V1.10986H238.892V6.18128C239.535 5.467 240.535 5.18127 241.463 5.18127C243.892 5.18127 245.035 6.82413 245.035 8.82412V14.6098H242.463V9.2527C242.463 8.2527 241.963 7.39555 240.678 7.39555C239.392 7.39555 238.963 8.18127 238.892 9.18126V14.6098Z" fill="black"/>
<path d="M247.606 5.46597H250.178V14.6802H247.606V5.46597ZM248.892 0.894531C249.821 0.894531 250.463 1.60882 250.463 2.46596C250.463 3.32311 249.749 3.96597 248.892 3.96597C248.035 3.96597 247.321 3.25168 247.321 2.46596C247.321 1.68025 248.035 0.894531 248.892 0.894531Z" fill="black"/>
<path d="M259.107 8.96589C259.107 8.03732 258.464 7.18018 256.965 7.18018C255.465 7.18018 254.893 8.18017 254.822 8.96589H259.107ZM261.536 12.0373C261.036 13.6087 259.536 14.9659 257.179 14.9659C254.822 14.9659 252.25 13.1802 252.25 10.0373C252.25 6.89446 254.536 5.18017 256.965 5.18017C259.393 5.18017 261.679 6.96589 261.679 9.96588C261.679 12.9659 261.679 10.6802 261.679 10.7516H254.822C254.822 11.9659 255.965 12.823 257.25 12.823C258.536 12.823 259.107 12.2516 259.393 11.3944L261.536 12.0373Z" fill="black"/>
<path d="M266.32 1.10986H263.748V14.6098H266.32V1.10986Z" fill="black"/>
<path d="M273.389 12.6098C274.746 12.6098 275.746 11.6098 275.746 9.96698C275.746 8.32413 274.746 7.39555 273.389 7.39555C272.032 7.39555 271.032 8.32413 271.032 9.96698C271.032 11.6098 272.032 12.6098 273.389 12.6098ZM278.246 12.967C278.246 13.6098 278.246 14.2527 278.318 14.6098H275.818C275.818 14.3955 275.746 13.967 275.746 13.5384C275.318 14.2527 274.318 14.8241 273.032 14.8241C270.318 14.8241 268.389 12.7527 268.389 9.96698C268.389 7.18127 270.246 5.18127 272.96 5.18127C275.675 5.18127 275.389 5.82413 275.675 6.32413V1.10986H278.246V12.967Z" fill="black"/>
<path d="M104.32 40.4665L104.177 36.6808C103.463 38.3236 101.32 40.8236 97.1057 40.8236C92.8914 40.8236 87.9629 37.2522 87.9629 30.6808C87.9629 24.1094 92.6057 20.6094 97.3914 20.6094C102.177 20.6094 104.749 22.9665 105.82 26.4665L104.249 27.1094C103.32 24.0379 100.82 22.1808 97.3914 22.1808C93.9629 22.1808 89.7486 25.0379 89.7486 30.6808C89.7486 36.3236 93.5343 39.2522 97.2486 39.2522C100.963 39.2522 104.034 35.3951 104.106 32.8951H96.8914V31.3236H105.749V40.4665H104.391H104.32Z" fill="black"/>
<path d="M111.317 20.6089H109.674V40.466H111.317V20.6089Z" fill="black"/>
<path d="M121.319 39.3229C123.89 39.3229 126.176 37.3229 126.176 33.8943C126.176 30.4658 123.89 28.4658 121.319 28.4658C118.747 28.4658 116.461 30.4658 116.461 33.8943C116.461 37.3229 118.747 39.3229 121.319 39.3229ZM114.819 33.8943C114.819 29.7515 117.676 26.9658 121.319 26.9658C124.961 26.9658 127.819 29.7515 127.819 33.8943C127.819 38.0372 124.961 40.8229 121.319 40.8229C117.676 40.8229 114.819 37.9658 114.819 33.8943Z" fill="black"/>
<path d="M142.032 33.8946C142.032 30.7517 140.175 28.466 137.532 28.466C134.889 28.466 133.032 30.7517 133.032 33.8946C133.032 37.0374 134.818 39.3231 137.532 39.3231C140.246 39.3231 142.032 37.0374 142.032 33.8946ZM131.318 40.466V20.6089H132.96V29.8946C133.532 28.6089 135.103 27.0374 137.675 27.0374C140.246 27.0374 143.603 30.0374 143.603 33.966C143.603 37.8946 141.246 40.8945 137.603 40.8945C133.96 40.8945 133.532 39.3946 132.889 37.966V40.5374H131.246L131.318 40.466Z" fill="black"/>
<path d="M155.034 35.1091V33.6091C154.963 33.6806 154.605 33.8234 154.105 33.9663L150.463 34.5377C148.891 34.752 147.963 35.6091 147.963 37.0377C147.963 38.4662 148.891 39.3948 150.748 39.3948C152.605 39.3948 155.034 37.752 155.034 35.1091ZM146.248 37.0377C146.248 34.8234 147.748 33.5377 150.177 33.1806L153.677 32.6805C154.82 32.4663 155.034 32.0377 155.034 31.3948C155.034 29.6091 153.891 28.3948 151.748 28.3948C149.605 28.3948 148.32 29.5377 148.034 31.4663L146.463 31.1091C146.748 28.6091 148.82 26.9663 151.677 26.9663C154.534 26.9663 156.677 28.9663 156.677 31.5377V38.1805C156.677 39.252 156.748 39.8948 156.891 40.4663H155.248C155.177 40.1805 155.105 39.252 155.105 38.1805C154.534 39.3948 152.891 40.752 150.534 40.752C148.177 40.752 146.248 38.9662 146.248 37.0377Z" fill="black"/>
<path d="M162.537 20.6089H160.895V40.466H162.537V20.6089Z" fill="black"/>
<path d="M184.677 25.8939C184.249 23.8939 182.892 22.1082 179.892 22.1082C176.892 22.1082 175.463 23.6797 175.463 25.9654C175.463 28.2511 176.534 28.9654 178.534 29.3939L181.534 30.1082C184.606 30.8225 186.392 32.6082 186.392 35.3225C186.392 38.0368 183.892 40.8225 179.963 40.8225C176.034 40.8225 173.32 38.0368 172.963 35.0368L174.606 34.5368C174.82 37.0368 176.749 39.3225 179.963 39.3225C183.177 39.3225 184.677 37.6796 184.677 35.5368C184.677 33.3939 183.392 32.3939 181.177 31.8939L178.249 31.1797C175.606 30.6082 173.749 28.8939 173.749 26.1797C173.749 23.4654 176.677 20.6797 179.892 20.6797C183.106 20.6797 185.677 22.9654 186.249 25.4654L184.677 26.0368V25.8939Z" fill="black"/>
<path d="M195.393 39.3237C197.893 39.3237 200.108 37.3952 200.108 34.1095C200.108 30.8238 197.893 28.8952 195.393 28.8952C192.893 28.8952 190.679 30.8238 190.679 34.1095C190.679 37.3952 192.893 39.3237 195.393 39.3237ZM189.108 34.1809C189.108 30.2523 191.822 27.5381 195.393 27.5381C198.965 27.5381 201.679 30.1809 201.679 34.1809C201.679 38.1809 198.893 40.8237 195.393 40.8237C191.893 40.8237 189.108 38.1095 189.108 34.1809Z" fill="black"/>
<path d="M206.823 20.6089H205.18V40.466H206.823V20.6089Z" fill="black"/>
<path d="M220.033 38.4665C219.39 39.6808 218.033 40.7523 215.89 40.7523C212.605 40.7523 211.033 38.3951 211.033 35.7523V27.8237H212.676V35.4666C212.676 37.4665 213.676 39.3237 216.248 39.3237C218.819 39.3237 219.962 37.6094 219.962 35.4666V27.8237H221.605V38.038C221.605 38.9665 221.676 39.8951 221.748 40.4665H220.176C220.105 40.1808 220.033 39.538 220.033 38.6808V38.4665Z" fill="black"/>
<path d="M228.675 27.3227H232.103V28.8227H228.675V36.7512C228.675 38.3226 229.389 39.1083 230.889 39.1083C232.389 39.1083 231.818 38.9655 232.103 38.8941V40.3226C231.889 40.4655 231.246 40.5369 230.46 40.5369C228.318 40.5369 227.032 39.2512 227.032 36.8226V28.7512H224.246V27.2512H225.246C226.532 27.2512 227.103 26.6798 227.103 25.3227V23.1084H228.675V27.2512V27.3227Z" fill="black"/>
<path d="M235.031 27.322H236.673V40.3934H235.031V27.322ZM235.816 23.1792C236.602 23.1792 237.173 23.7506 237.173 24.5363C237.173 25.322 236.602 25.8935 235.816 25.8935C235.031 25.8935 234.459 25.322 234.459 24.5363C234.459 23.7506 235.031 23.1792 235.816 23.1792Z" fill="black"/>
<path d="M246.387 39.3237C248.887 39.3237 251.102 37.3952 251.102 34.1095C251.102 30.8238 248.887 28.8952 246.387 28.8952C243.887 28.8952 241.673 30.8238 241.673 34.1095C241.673 37.3952 243.887 39.3237 246.387 39.3237ZM240.102 34.1809C240.102 30.2523 242.816 27.5381 246.387 27.5381C249.959 27.5381 252.673 30.1809 252.673 34.1809C252.673 38.1809 249.887 40.8237 246.387 40.8237C242.887 40.8237 240.102 38.1095 240.102 34.1809Z" fill="black"/>
<path d="M257.817 40.466H256.174V27.8946H257.746V29.8945C258.46 28.5374 260.031 27.6088 262.031 27.6088C265.103 27.6088 266.674 29.6803 266.674 32.3231V40.5374H265.031V32.6088C265.031 30.6088 264.031 29.1088 261.46 29.1088C258.888 29.1088 257.817 30.8945 257.817 33.0374V40.5374V40.466Z" fill="black"/>
<path d="M271.319 36.6076C271.534 38.1791 272.748 39.3934 274.891 39.3934C277.034 39.3934 277.819 38.4648 277.819 37.1791C277.819 35.8934 276.962 35.3934 275.605 35.0362L273.462 34.5362C271.534 34.1077 270.248 33.0362 270.248 31.1791C270.248 29.322 272.248 27.4648 274.677 27.4648C277.105 27.4648 278.962 29.1791 279.391 30.6791L277.962 31.1791C277.748 29.9648 276.748 28.7505 274.748 28.7505C272.748 28.7505 271.962 29.6077 271.962 30.9648C271.962 32.3219 272.677 32.6791 274.034 32.9648L276.105 33.3934C278.319 33.8934 279.534 35.0362 279.534 36.8934C279.534 38.7505 277.891 40.6076 274.962 40.6076C272.034 40.6076 270.105 38.6791 269.891 36.9648L271.391 36.4648L271.319 36.6076Z" fill="black"/>
<path d="M283.103 38.1079C283.103 37.8936 282.888 37.5364 282.388 37.5364C281.888 37.5364 281.746 37.7507 281.746 38.0364C281.746 38.3221 281.888 38.465 282.174 38.465H282.674C283.245 38.6793 283.531 39.0364 283.531 39.465C283.531 39.8936 283.103 40.3936 282.388 40.3936C281.674 40.3936 281.246 39.8936 281.174 39.465L281.603 39.3222C281.603 39.6793 281.888 40.0364 282.388 40.0364C282.888 40.0364 283.031 39.8221 283.031 39.5364C283.031 39.2507 282.888 39.1079 282.531 39.0364H282.103C281.674 38.8222 281.317 38.5364 281.317 38.0364C281.317 37.5364 281.817 37.1079 282.388 37.1079C282.96 37.1079 283.388 37.5364 283.46 37.8936L283.031 38.0364L283.103 38.1079Z" fill="black"/>
<path d="M287.25 40.4667V37.9667L286.107 40.4667H285.75L284.607 37.9667V40.4667H284.178V37.2524H284.821L285.964 39.8238L287.107 37.2524H287.678V40.4667H287.25Z" fill="black"/>
</svg>
