<svg xmlns="http://www.w3.org/2000/svg" width="120" height="24" viewBox="0 0 120 24" fill="currentColor" class="mt-0.5 h-[24px] w-[120px]"><path d="M11.05,.02l.15,5.93h-.53c-.19-1.36-.83-2.62-1.84-3.58-.83-.84-1.97-1.33-3.17-1.36-.38-.02-.76,.04-1.12,.17-.36,.13-.69,.32-.97,.58-.24,.21-.43,.46-.56,.74-.13,.28-.2,.59-.21,.9,0,.37,.09,.73,.27,1.05,.32,.46,.73,.86,1.21,1.17,.89,.57,1.82,1.09,2.77,1.55,1.57,.68,2.98,1.66,4.14,2.9,.7,.9,1.07,1.99,1.06,3.12,0,.72-.14,1.44-.44,2.1-.29,.66-.73,1.25-1.27,1.74-.58,.54-1.26,.95-2.01,1.23-.75,.28-1.54,.4-2.34,.38-.52,0-1.03-.06-1.54-.17-.63-.16-1.25-.38-1.85-.64-.32-.14-.66-.21-1.01-.22-.26,.01-.51,.1-.71,.26-.27,.21-.48,.48-.61,.8h-.48v-6.73H.48c.24,1.63,1.01,3.14,2.19,4.32,.92,.93,2.17,1.47,3.49,1.5,.85,.04,1.67-.25,2.3-.8,.44-.38,.73-.89,.82-1.45,.1-.56,0-1.14-.29-1.63-.25-.43-.59-.82-1-1.12-.75-.53-1.54-.99-2.37-1.38-1.21-.57-2.36-1.25-3.43-2.04-.66-.52-1.21-1.16-1.61-1.89C.2,6.72,.01,5.94,.02,5.16c-.01-.67,.12-1.34,.38-1.97,.26-.62,.66-1.19,1.15-1.66,.5-.49,1.1-.87,1.76-1.13C3.97,.15,4.68,.03,5.39,.05c.56-.01,1.12,.05,1.66,.18,.53,.14,1.05,.34,1.54,.58,.37,.22,.79,.36,1.22,.43,.1,0,.2-.01,.29-.05,.09-.04,.17-.09,.24-.16,.19-.31,.32-.65,.36-1.01h.36Zm8.54,16.38c-1.47,1.32-2.79,1.98-3.96,1.98-.32,0-.64-.05-.93-.17-.3-.12-.56-.3-.79-.52-.23-.23-.4-.5-.52-.79-.12-.3-.17-.61-.16-.93,0-.48,.12-.95,.32-1.38,.2-.43,.5-.82,.87-1.14,.79-.75,2.52-1.75,5.17-2.99v-1.23c.04-.59-.01-1.18-.15-1.75-.12-.26-.31-.48-.56-.63-.27-.18-.6-.27-.93-.27-.49-.02-.97,.11-1.38,.38-.1,.06-.18,.14-.24,.23-.06,.1-.09,.21-.1,.32,.04,.26,.16,.5,.36,.68,.29,.29,.47,.68,.49,1.08,0,.2-.04,.41-.12,.59-.08,.19-.2,.36-.35,.5-.16,.15-.36,.27-.57,.35-.21,.08-.44,.11-.66,.1-.5,.01-.99-.17-1.36-.5-.17-.15-.31-.32-.4-.53-.09-.2-.14-.42-.14-.64,.02-.67,.3-1.31,.77-1.8,.54-.6,1.23-1.05,2-1.31,.88-.29,1.81-.43,2.74-.42,.97-.05,1.92,.21,2.72,.75,.59,.4,1.04,.96,1.3,1.61,.15,.82,.2,1.65,.15,2.48v4.76c-.02,.35,0,.71,.06,1.05,.03,.12,.1,.24,.19,.32,.08,.07,.19,.11,.3,.1,.23,0,.45-.16,.68-.49l.38,.31c-.34,.55-.8,1.03-1.34,1.41-.46,.29-.99,.44-1.54,.44-.58,.03-1.15-.14-1.61-.49-.42-.39-.67-.92-.71-1.48Zm0-.96v-4.11c-.9,.51-1.68,1.18-2.3,1.99-.32,.41-.49,.91-.51,1.43,0,.39,.15,.78,.43,1.06,.11,.12,.26,.21,.41,.27,.16,.06,.32,.09,.49,.08,.56-.07,1.08-.32,1.47-.73ZM30.15,7.21V15.74c-.06,.53,.03,1.07,.26,1.55,.2,.18,.45,.32,.71,.4,.27,.08,.55,.09,.82,.05v.47h-7.13v-.47c.4,.02,.79-.04,1.16-.19,.21-.1,.38-.28,.47-.49,.11-.43,.16-.87,.13-1.31V7.23h-1.76v-1.29h1.76v-1.52c-.02-.59,.1-1.17,.33-1.72,.23-.54,.58-1.03,1.02-1.43C28.94,.4,30.26-.05,31.61,.02c.83-.06,1.66,.15,2.36,.61,.23,.15,.41,.35,.55,.58,.13,.23,.21,.49,.22,.76,0,.19-.04,.39-.12,.56-.08,.18-.2,.33-.35,.46-.35,.3-.8,.46-1.27,.43-.39,.02-.77-.11-1.07-.35-.12-.1-.22-.22-.28-.35-.07-.14-.1-.28-.11-.43,.01-.16,.04-.33,.08-.49,.03-.14,.05-.28,.05-.42,0-.07,0-.15-.03-.22-.03-.07-.07-.13-.12-.19-.07-.06-.15-.11-.23-.15-.09-.03-.18-.05-.27-.05-.12,0-.24,.03-.35,.08-.11,.05-.2,.13-.28,.23-.19,.3-.28,.66-.25,1.01v3.86h1.78v1.29l-1.75-.04Zm12.44,4.39h-6.62c0,1.38,.44,2.73,1.28,3.85,.24,.33,.57,.6,.94,.79,.37,.19,.78,.29,1.2,.29,.51,.02,1.01-.12,1.43-.4,.54-.43,.99-.96,1.34-1.55l.44,.29c-.47,1.12-1.22,2.11-2.17,2.88-.53,.36-1.13,.61-1.76,.74-.63,.13-1.28,.14-1.92,.02-.63-.12-1.24-.35-1.78-.7-.54-.35-1-.79-1.36-1.31-.78-1.26-1.17-2.72-1.11-4.2-.1-1.77,.49-3.51,1.64-4.89,.46-.56,1.04-1.02,1.71-1.33,.66-.31,1.39-.48,2.13-.49,.61,0,1.22,.14,1.77,.39,.55,.26,1.04,.64,1.42,1.1,.99,1.3,1.49,2.88,1.44,4.49Zm-3.18-.88c.04-.96-.04-1.92-.22-2.87-.1-.45-.34-.87-.68-1.19-.2-.17-.46-.25-.72-.24-.23,0-.45,.07-.64,.19s-.35,.28-.45,.48c-.56,.98-.83,2.09-.77,3.2v.46l3.48-.03ZM47.6,1.46V5.95h2.86v1.29h-2.86v7.56c-.01,.46,.03,.92,.13,1.37,.06,.2,.18,.37,.35,.5,.12,.09,.27,.15,.42,.16,.56,0,1.09-.43,1.59-1.29l.38,.29c-.7,1.68-1.83,2.51-3.39,2.51-.66,0-1.3-.2-1.83-.57-.53-.38-.93-.91-1.12-1.52-.12-.8-.17-1.6-.14-2.41V7.24h-1.57v-.46c1.01-.72,1.94-1.54,2.77-2.45,.78-.88,1.45-1.84,2-2.87h.42Zm8.26,17.21l-3.9-9.05c-.33-.88-.76-1.72-1.3-2.51-.27-.31-.62-.54-1.01-.66v-.49h6.42v.49c-.32-.01-.63,.07-.89,.25-.08,.07-.15,.15-.19,.24-.05,.09-.07,.19-.07,.3,.11,.69,.32,1.35,.64,1.97l2.06,4.8,1.4-3.74c.4-.88,.65-1.8,.77-2.75,0-.14-.02-.28-.08-.41-.05-.13-.13-.25-.24-.34-.32-.23-.72-.34-1.12-.31v-.49h4.04v.49c-.37,.03-.72,.2-.97,.46-.53,.85-.95,1.77-1.25,2.72l-3.45,9.07c-.48,1.47-1.13,2.87-1.93,4.2-.26,.34-.59,.62-.98,.81-.39,.19-.82,.29-1.25,.29-.32,.02-.64-.03-.95-.14-.3-.11-.58-.27-.82-.49-.21-.19-.38-.42-.5-.68-.11-.26-.17-.54-.17-.82-.02-.46,.15-.91,.46-1.26,.14-.16,.31-.29,.51-.37,.19-.09,.41-.13,.62-.13,.19,0,.39,.03,.57,.1,.18,.07,.34,.18,.47,.32,.29,.37,.44,.83,.41,1.29-.02,.22,.02,.44,.12,.64,.03,.05,.08,.08,.13,.11,.05,.02,.11,.04,.17,.03,.13-.01,.26-.06,.37-.12,.11-.07,.21-.15,.29-.26,.55-.77,.96-1.62,1.21-2.51l.41-1.06ZM89.32,.42v.49c-.3,.02-.58,.11-.83,.28-.26,.2-.46,.46-.59,.75-.05,.1-.32,.78-.81,2.04l-5.49,14.67h-.51l-4.34-11.46-4.77,11.43h-.45l-5.79-14.49c-.33-.92-.74-1.8-1.23-2.65-.14-.17-.32-.3-.53-.4-.2-.09-.42-.14-.65-.14V.42h7.59v.49c-.43-.03-.85,.07-1.22,.28-.1,.08-.18,.17-.23,.28-.05,.11-.08,.23-.08,.35,.11,.73,.32,1.44,.63,2.11l3.43,8.63,2.75-6.73-.72-1.89c-.24-.71-.54-1.41-.89-2.07-.18-.31-.45-.57-.77-.75-.39-.17-.81-.25-1.24-.22V.42h8.48v.49c-.43-.01-.86,.04-1.28,.14-.17,.05-.32,.16-.43,.31-.11,.15-.17,.33-.16,.52,.13,.63,.32,1.25,.58,1.85l3.25,8.4,2.86-7.62c.21-.53,.4-1.07,.55-1.62,.06-.26,.1-.53,.1-.8,0-.16-.02-.32-.08-.46-.06-.15-.16-.28-.28-.38-.41-.25-.9-.37-1.38-.34V.42h4.51Zm4.06,5.52V15.67c-.07,.57,.04,1.15,.3,1.66,.15,.14,.34,.25,.54,.32,.2,.07,.41,.1,.62,.09v.47h-6.52v-.48c.22,0,.44-.03,.65-.11,.21-.08,.39-.21,.54-.36,.23-.5,.32-1.05,.26-1.6v-7.16c.07-.57-.04-1.15-.3-1.66-.15-.14-.33-.25-.53-.32-.2-.07-.41-.1-.62-.09v-.49h5.06ZM91.56,0c.27,0,.53,.05,.78,.15,.24,.1,.46,.26,.64,.45,.19,.19,.34,.42,.44,.66,.1,.25,.15,.51,.14,.78,0,.26-.05,.53-.15,.77-.1,.25-.25,.47-.44,.66-.18,.19-.4,.34-.64,.44-.24,.1-.51,.15-.77,.15-.26,0-.52-.05-.77-.15-.24-.1-.46-.25-.64-.44-.19-.19-.34-.41-.44-.66-.1-.25-.15-.51-.14-.77,0-.27,.04-.53,.14-.78,.1-.25,.25-.47,.44-.66,.18-.19,.39-.34,.64-.45,.24-.1,.5-.16,.77-.15Zm8.08,5.94v1.59c.51-.59,1.11-1.1,1.78-1.5,.56-.31,1.19-.47,1.83-.46,.71-.03,1.41,.21,1.95,.66,.51,.43,.87,1.01,1.04,1.65,.18,.95,.25,1.91,.21,2.87v4.77c-.06,.6,.03,1.21,.25,1.77,.14,.14,.3,.25,.48,.33,.18,.08,.38,.12,.57,.12v.47h-6.14v-.46c.2-.01,.39-.07,.56-.17,.17-.1,.31-.24,.42-.4,.19-.52,.26-1.07,.21-1.62v-5.43c.03-.64-.01-1.27-.12-1.9-.06-.24-.2-.45-.39-.61-.17-.14-.39-.22-.61-.22-.74,0-1.43,.54-2.07,1.62v6.57c-.06,.59,.03,1.19,.25,1.74,.11,.14,.26,.25,.42,.33,.16,.08,.34,.12,.52,.13v.47h-6.14v-.5c.21,0,.41-.05,.6-.14,.19-.09,.35-.21,.49-.36,.21-.54,.28-1.13,.22-1.71v-6.92c.06-.59-.03-1.18-.25-1.73-.28-.28-.65-.44-1.05-.45v-.49h4.97Zm16.23,.14h4.07v1.44h-2.3c.35,.34,.65,.73,.88,1.17,.26,.61,.35,1.27,.28,1.92-.07,.65-.31,1.28-.69,1.82-.5,.66-1.18,1.17-1.95,1.5-.68,.33-1.43,.52-2.19,.55l-1.53-.07c-.18,0-.36,.03-.53,.1-.17,.07-.32,.17-.45,.29-.13,.12-.23,.26-.29,.42-.07,.16-.1,.33-.1,.5,0,.14,.03,.28,.09,.41s.15,.24,.26,.34c.34,.23,.75,.34,1.16,.3h2.23c1.81,0,3.05,.2,3.73,.61,.47,.25,.85,.63,1.11,1.09,.26,.46,.38,.97,.35,1.49,0,.73-.23,1.44-.67,2.03-.44,.61-1.06,1.07-1.76,1.35-1.23,.45-2.53,.67-3.84,.64-1,0-2-.1-2.97-.32-.71-.11-1.39-.39-1.95-.84-.18-.15-.32-.34-.42-.54-.1-.21-.16-.43-.17-.66,0-.4,.16-.79,.45-1.08,.47-.41,1.04-.69,1.66-.81-.49-.18-.9-.5-1.2-.92-.3-.42-.47-.91-.48-1.41,.01-.65,.26-1.27,.68-1.76,.59-.67,1.33-1.18,2.17-1.5-.99-.31-1.86-.9-2.5-1.69-.52-.71-.79-1.56-.77-2.42,0-.59,.13-1.17,.38-1.71,.25-.54,.61-1.02,1.07-1.4,1.02-.89,2.36-1.36,3.72-1.3,.85,0,1.69,.16,2.47,.47Zm-2.99,13.92c-.59-.04-1.18,.03-1.74,.22-.22,.09-.41,.24-.55,.44-.14,.19-.21,.42-.22,.66,.01,.25,.09,.49,.23,.7,.13,.21,.32,.39,.54,.51,.88,.45,1.88,.64,2.86,.55,.97,.04,1.93-.12,2.82-.49,.29-.1,.55-.28,.73-.53,.18-.24,.29-.53,.3-.84,0-.2-.06-.4-.19-.55-.28-.29-.65-.48-1.05-.54-1.24-.13-2.49-.18-3.73-.13h0Zm.77-13.63c-.26,.01-.51,.08-.73,.22-.22,.13-.41,.31-.53,.53-.34,.5-.51,1.56-.51,3.18-.08,.92,.09,1.85,.51,2.68,.12,.21,.29,.4,.5,.53,.21,.13,.45,.21,.7,.22,.26,0,.52-.08,.75-.21,.23-.13,.41-.32,.54-.54,.43-.87,.61-1.84,.51-2.81,.1-1.1-.1-2.2-.58-3.2-.12-.19-.29-.36-.49-.46-.2-.11-.43-.16-.67-.16v.02Z"></path></svg>