<svg version="1.1" id="Layer_1" xmlns="http://www.w3.org/2000/svg" xmlns:xlink="http://www.w3.org/1999/xlink" x="0px" y="0px"
	 viewBox="0 0 176 34" style="enable-background:new 0 0 176 34;" xml:space="preserve">
<style type="text/css">
	.st0{fill:#FF9C00;}
	.st1{fill:#464844;}
</style>
<g>
	<path class="st0" d="M3.5,6.3c0.9,0,1.6,0.5,2,1.3L7,11.1l4.5-2c0.6-0.2,1.1-0.2,1.6,0.1l4.3,1.9L19,7.6c0.3-0.8,1.1-1.3,2-1.3h2.2
		l0,0c0-0.1,0-0.1-0.1-0.2C23,5.7,22.8,5.3,22.7,5c-0.5-1.1-1.2-1.9-2.2-2.5l0,0c-0.1,0-0.1-0.1-0.2-0.1s-0.1-0.1-0.2-0.1H20
		c-1-0.5-2.1-0.8-3.2-1c-0.1,0-0.1,0-0.2,0h-0.1C16,1.1,15.3,1,14.7,1h-0.6c1.2,0.6,2,1.9,2,3.3c0,2.1-1.7,3.8-3.8,3.8
		S8.5,6.4,8.5,4.3c0-1.4,0.8-2.7,2-3.3h-0.2H9.7l0,0C7.9,1,5.9,1.2,4.3,2.1c0,0-0.1,0-0.1,0.1c0,0-0.1,0-0.1,0.1
		c-0.1-0.1-0.2,0-0.3,0c0,0,0,0-0.1,0C2.8,3,2,4,1.5,5.5l0,0c0,0.1-0.1,0.2-0.1,0.4V6c0,0.1,0,0.1,0,0.2v0.1l0,0
		C1.4,6.3,3.5,6.3,3.5,6.3z"/>
	<path class="st0" d="M23.7,10.7L23.7,10.7h-1.2l-1.9,4.2c-0.4,0.8-1.2,1.3-2,1.3c-0.3,0-0.6-0.1-0.9-0.2l-3.2-1.4v2.1v2.5h3.8
		c1.2,0,2.2,1,2.2,2.2v6.2h2.9c0.1-0.3,0.1-0.7,0.2-1.1l0,0c0-0.2,0-0.4,0-0.6v-0.1c0-0.2,0-0.4,0-0.6s0-0.5,0-0.7v-0.1
		c0-4.5,0.1-8.4,0.1-11.4C23.7,12,23.7,11.3,23.7,10.7"/>
	<path class="st0" d="M16.1,29.6v-6.2H8.7v6.2c0,1.2-1,2.2-2.2,2.2H4.7c0.8,0.4,1.6,0.7,2.6,0.9l0,0c0.2,0,0.4,0.1,0.7,0.1h0.1
		c0.2,0,0.4,0.1,0.7,0.1h0.1c0.2,0,0.5,0,0.7,0.1h0.1c0.3,0,0.5,0,0.8,0h3.2c0.1,0,0.2,0,0.4,0l0,0c0.3,0,0.5,0,0.8,0
		c0.1,0,0.2,0,0.3,0h0.1c0.1,0,0.2,0,0.3,0h0.1c0.1,0,0.2,0,0.3,0h0.1c0.1,0,0.2,0,0.4,0h0.1c0.1,0,0.3,0,0.4,0c0,0,0,0,0.1,0
		s0.3,0,0.4,0c0,0,0,0,0.1,0s0.3,0,0.4-0.1c0,0,0,0,0.1,0s0.3-0.1,0.4-0.1c0,0,0,0,0.1,0s0.3-0.1,0.4-0.1l0,0c0.1,0,0.3-0.1,0.4-0.1
		l0,0c0.1-0.1,0.3-0.1,0.4-0.2l0,0c0.1-0.1,0.3-0.1,0.4-0.2l0,0c0.1-0.1,0.3-0.1,0.4-0.2h-2.3C17.1,31.8,16.1,30.8,16.1,29.6"/>
	<path class="st0" d="M6.5,19.1h3.6V16v-1.4L6.8,16c-1.1,0.5-2.4,0-2.9-1.1L2,10.7H1l0,0c0,3.6-0.1,7-0.1,9.8c0,2.9,0,5,0.3,6.3
		c0,0.1,0,0.2,0.1,0.3c0,0.1,0,0.2,0.1,0.3l0,0h3v-6.2C4.4,20.1,5.3,19.1,6.5,19.1"/>
	<polygon class="st1" points="49.3,9.3 47.2,17.8 45.2,9.3 41.4,9.3 39.4,17.8 37.4,9.3 33.6,9.3 37.3,24.8 40.9,24.8 43.3,14.7
		43.3,14.7 43.3,14.7 45.7,24.8 49.4,24.8 53.1,9.3 	"/>
	<polygon class="st1" points="77.8,9.3 77.8,24.8 74,24.8 74,9.3 77.3,9.3 	"/>
	<path class="st1" d="M69.1,24.8h-3.6V14.2c1.3-0.7,3-1,4.7-1c1,0,1.6,0.1,2.6,0.3V17c-0.8-0.3-1.6-0.4-2.4-0.4
		c-0.4,0-0.8,0.1-1.2,0.2L69.1,24.8L69.1,24.8z"/>
	<path class="st1" d="M90.6,24.5c-1.4,0.4-3.4,0.6-5,0.6c-4,0-6.6-2.1-6.6-6c0-3.6,2.3-6,6-6c0.8,0,1.5,0.1,2,0.3V9.3h3.6V24.5z
		 M87,16.6c-0.5-0.2-1-0.3-1.7-0.3c-1.6,0-2.6,1-2.6,2.7c0,1.9,1.1,3,3,3c0.3,0,0.8,0,1.3-0.1C87,21.9,87,16.6,87,16.6z"/>
	<path class="st1" d="M58.3,13c3.5,0,6.1,2.4,6.1,6s-2.7,6-6.1,6c-3.4,0-6.1-2.4-6.1-6C52.2,15.4,54.8,13,58.3,13 M58.3,16.1
		c-1.4,0-2.4,1.1-2.4,2.9s1,2.9,2.4,2.9s2.5-1.1,2.5-2.9C60.7,17.2,59.7,16.1,58.3,16.1"/>
	<polygon class="st1" points="101.1,16.6 101.1,16.6 101.1,24.8 97.3,24.8 97.3,9.3 100.4,9.3 106,17.7 106,17.7 106,9.3 109.7,9.3
		109.7,24.8 106.8,24.8 	"/>
	<path class="st1" d="M117.2,13c3.5,0,6.1,2.4,6.1,6s-2.7,6-6.1,6s-6.1-2.4-6.1-6S113.7,13,117.2,13 M117.2,16.1
		c-1.4,0-2.4,1.1-2.4,2.9s1,2.9,2.4,2.9s2.5-1.1,2.5-2.9C119.6,17.2,118.6,16.1,117.2,16.1"/>
	<path class="st1" d="M137.6,17.4c0-0.9-0.3-1.6-1.5-1.6c-0.6,0-1.3,0.2-1.7,0.4c0.1,0.2,0.2,0.5,0.2,0.9v7.3H131v-7
		c0-0.9-0.3-1.6-1.4-1.6c-0.6,0-0.9,0.1-1.5,0.2v8.4h-3.6V13.7c1.6-0.6,3.6-1,5.4-1c1.4,0,2.5,0.4,3.2,0.9c0.9-0.5,2-0.9,3.8-0.9
		c2.7,0,4.5,1,4.5,4.6v7.2h-3.6v-7.1H137.6z"/>
	<path class="st1" d="M148.6,17.4c0-1-0.9-1.4-1.9-1.4c-1.4,0-2.4,0.4-3.3,0.9v-3.1c1-0.6,2.5-0.9,4-0.9c2.8,0,4.9,1,4.9,4.3v7.2
		c-1.1,0.3-3.1,0.5-4.7,0.5c-2.8,0-5.2-0.8-5.2-3.6c0-2.4,1.9-3.5,5-3.5h1.2V17.4z M148.6,20.1h-1c-1.1,0-1.7,0.4-1.7,1.2
		s0.6,1.2,1.5,1.2c0.3,0,0.8,0,1.2-0.1V20.1z"/>
	<path class="st1" d="M166.3,20.9c1.2,0.8,2.7,1.3,3.8,1.3c0.8,0,1.4-0.2,1.4-0.7s-0.3-0.7-1.4-0.9c-2.8-0.4-4-1.5-4-3.7
		c0-2.7,2-3.9,4.7-3.9c1.5,0,2.4,0.3,3.5,0.9V17c-1.1-0.7-2.2-1.1-3.3-1.1c-1,0-1.3,0.4-1.3,0.7c0,0.4,0.3,0.7,1.2,0.8
		c3.3,0.5,4.2,1.8,4.2,3.9c0,2.6-1.9,3.7-4.8,3.7c-1.4,0-2.9-0.3-3.9-0.9L166.3,20.9L166.3,20.9z"/>
	<path class="st1" d="M164.8,24.2c-1.4,0.4-3.4,0.6-5,0.6c-4,0-6.6-2.1-6.6-6c0-3.6,2.3-6,6-6c0.8,0,1.5,0.1,2,0.3V9.3h3.6V24.2z
		 M161.2,16.3c-0.5-0.2-1-0.3-1.7-0.3c-1.6,0-2.6,1-2.6,2.7c0,1.9,1.1,3,3,3c0.3,0,0.8,0,1.3-0.1V16.3z"/>
</g>
</svg>
